<?xml version="1.0" encoding="utf-8"?>
<svg width="512px" height="512px" viewBox="0 0 512 512" version="1.1" xmlns:xlink="http://www.w3.org/1999/xlink" xmlns="http://www.w3.org/2000/svg">
  <defs>
    <linearGradient gradientUnits="userSpaceOnUse" x1="0" y1="0" x2="512" y2="512" id="gradient_1">
      <stop offset="0%" stop-color="#181929" />
      <stop offset="100%" stop-color="#2A2D5D" />
    </linearGradient>
    <linearGradient gradientUnits="userSpaceOnUse" x1="440.00027" y1="392.99976" x2="-94.827225" y2="10.382064" id="gradient_2">
      <stop offset="0%" stop-color="#FFFFFF" stop-opacity="0.101960786" />
      <stop offset="100%" stop-color="#FFFFFF" stop-opacity="0.2" />
    </linearGradient>
    <path d="M99.999 0.0838928L412.001 0.0838928Q414.456 0.0838928 416.908 0.204346Q419.36 0.324799 421.803 0.565415Q424.246 0.806031 426.674 1.16623Q429.102 1.52643 431.51 2.00535Q433.917 2.48426 436.299 3.08074Q438.68 3.67721 441.029 4.38982Q443.378 5.10242 445.69 5.92943Q448.001 6.75644 450.269 7.69586Q452.537 8.63529 454.756 9.68487Q456.975 10.7344 459.14 11.8916Q461.305 13.0488 463.411 14.3109Q465.516 15.5729 467.557 16.9368Q469.599 18.3006 471.57 19.7629Q473.542 21.2253 475.44 22.7826Q477.337 24.34 479.156 25.9885Q480.975 27.6371 482.711 29.3729Q484.447 31.1088 486.095 32.9277Q487.744 34.7466 489.301 36.6442Q490.859 38.5418 492.321 40.5136Q493.783 42.4853 495.147 44.5264Q496.511 46.5675 497.773 48.6731Q499.035 50.7787 500.192 52.9437Q501.349 55.1087 502.399 57.3278Q503.449 59.547 504.388 61.8149Q505.327 64.0829 506.154 66.3942Q506.981 68.7056 507.694 71.0547Q508.407 73.4038 509.003 75.7851Q509.6 78.1664 510.079 80.5741Q510.557 82.9817 510.918 85.41Q511.278 87.8383 511.518 90.2813Q511.759 92.7243 511.88 95.1762Q512 97.6281 512 100.083L512 412.085Q512 414.54 511.88 416.992Q511.759 419.443 511.518 421.886Q511.278 424.329 510.918 426.758Q510.557 429.186 510.078 431.594Q509.6 434.001 509.003 436.383Q508.407 438.764 507.694 441.113Q506.981 443.462 506.154 445.773Q505.327 448.085 504.388 450.353Q503.449 452.621 502.399 454.84Q501.349 457.059 500.192 459.224Q499.035 461.389 497.773 463.495Q496.511 465.6 495.147 467.641Q493.783 469.682 492.321 471.654Q490.859 473.626 489.301 475.524Q487.744 477.421 486.095 479.24Q484.447 481.059 482.711 482.795Q480.975 484.531 479.156 486.179Q477.337 487.828 475.44 489.385Q473.542 490.942 471.57 492.405Q469.599 493.867 467.557 495.231Q465.516 496.595 463.411 497.857Q461.305 499.119 459.14 500.276Q456.975 501.433 454.756 502.483Q452.537 503.532 450.269 504.472Q448.001 505.411 445.69 506.238Q443.378 507.065 441.029 507.778Q438.68 508.491 436.299 509.087Q433.917 509.683 431.51 510.162Q429.102 510.641 426.674 511.001Q424.246 511.362 421.803 511.602Q419.36 511.843 416.908 511.963Q414.456 512.084 412.001 512.084L99.999 512.084Q97.5442 512.084 95.0923 511.963Q92.6404 511.843 90.1974 511.602Q87.7544 511.362 85.3261 511.001Q82.8978 510.641 80.4902 510.162Q78.0825 509.683 75.7012 509.087Q73.32 508.491 70.9708 507.778Q68.6217 507.065 66.3103 506.238Q63.999 505.411 61.731 504.472Q59.4631 503.532 57.2439 502.483Q55.0248 501.433 52.8598 500.276Q50.6948 499.119 48.5892 497.857Q46.4837 496.595 44.4425 495.231Q42.4014 493.867 40.4297 492.405Q38.4579 490.942 36.5603 489.385Q34.6627 487.828 32.8438 486.179Q31.0249 484.531 29.289 482.795Q27.5532 481.059 25.9046 479.24Q24.2561 477.421 22.6987 475.524Q21.1414 473.626 19.679 471.654Q18.2167 469.682 16.8529 467.641Q15.489 465.6 14.227 463.495Q12.965 461.389 11.8078 459.224Q10.6506 457.059 9.60097 454.84Q8.5514 452.621 7.61197 450.353Q6.67254 448.085 5.84553 445.773Q5.01853 443.462 4.30592 441.113Q3.59332 438.764 2.99684 436.383Q2.40037 434.001 1.92145 431.594Q1.44254 429.186 1.08234 426.758Q0.722139 424.33 0.481523 421.887Q0.240906 419.443 0.120453 416.992Q0 414.54 0 412.085L0 100.083Q0 97.6281 0.120453 95.1762Q0.240906 92.7243 0.481523 90.2813Q0.722139 87.8383 1.08234 85.41Q1.44254 82.9817 1.92145 80.574Q2.40037 78.1664 2.99684 75.7851Q3.59332 73.4038 4.30592 71.0547Q5.01853 68.7056 5.84553 66.3942Q6.67254 64.0829 7.61197 61.8149Q8.5514 59.547 9.60097 57.3278Q10.6506 55.1087 11.8078 52.9437Q12.965 50.7787 14.227 48.6731Q15.489 46.5675 16.8529 44.5264Q18.2167 42.4853 19.6791 40.5136Q21.1414 38.5418 22.6987 36.6442Q24.2561 34.7466 25.9046 32.9277Q27.5532 31.1088 29.289 29.3729Q31.0249 27.6371 32.8438 25.9885Q34.6627 24.34 36.5603 22.7826Q38.4579 21.2253 40.4297 19.7629Q42.4014 18.3006 44.4425 16.9368Q46.4837 15.5729 48.5892 14.3109Q50.6948 13.0488 52.8598 11.8916Q55.0248 10.7344 57.2439 9.68487Q59.4631 8.63529 61.731 7.69586Q63.999 6.75644 66.3103 5.92943Q68.6217 5.10242 70.9708 4.38982Q73.3199 3.67721 75.7012 3.08074Q78.0825 2.48426 80.4902 2.00535Q82.8978 1.52643 85.3261 1.16623Q87.7544 0.806031 90.1974 0.565415Q92.6404 0.324799 95.0923 0.204346Q97.5442 0.0838928 99.999 0.0838928L99.999 0.0838928Z" id="path_1" />
    <path d="M400.064 299.712L159.422 434.423Q158.003 435.218 156.535 435.918Q155.067 436.619 153.557 437.222Q152.047 437.826 150.5 438.33Q148.954 438.835 147.378 439.237Q145.802 439.64 144.204 439.939Q142.605 440.239 140.99 440.434Q139.376 440.629 137.752 440.718Q136.128 440.808 134.502 440.792Q132.875 440.775 131.253 440.654Q129.631 440.532 128.021 440.305Q126.41 440.078 124.818 439.747Q123.226 439.415 121.658 438.981Q120.091 438.547 118.555 438.013Q117.019 437.478 115.521 436.844Q114.023 436.21 112.569 435.481Q111.116 434.751 109.713 433.929Q108.31 433.106 106.963 432.194Q105.616 431.282 104.332 430.285Q103.047 429.287 101.83 428.208Q100.613 427.129 99.4689 425.973Q98.3245 424.818 97.2578 423.59Q96.191 422.362 95.2062 421.068Q94.2215 419.773 93.3229 418.418Q92.4244 417.062 91.6158 415.651Q90.8073 414.24 90.0922 412.779Q89.3771 411.318 88.7584 409.814Q88.1397 408.31 87.6201 406.769Q87.1005 405.227 86.6822 403.656Q86.2638 402.084 85.9485 400.488Q85.6332 398.893 85.4222 397.28Q85.2113 395.667 85.1056 394.044Q84.9999 392.422 84.9999 390.795L84.9995 121.374Q84.9995 119.747 85.1052 118.124Q85.2109 116.501 85.4219 114.889Q85.6328 113.276 85.9481 111.68Q86.2635 110.085 86.6818 108.513Q87.1001 106.941 87.6198 105.4Q88.1394 103.859 88.758 102.355Q89.3767 100.851 90.0918 99.39Q90.8069 97.9292 91.6154 96.518Q92.424 95.1068 93.3225 93.7511Q94.221 92.3954 95.2058 91.101Q96.1905 89.8065 97.2573 88.5789Q98.3241 87.3512 99.4684 86.1954Q100.613 85.0396 101.83 83.9607Q103.047 82.8817 104.331 81.8842Q105.616 80.8866 106.963 79.9746Q108.309 79.0626 109.712 78.2401Q111.115 77.4175 112.569 76.6879Q114.023 75.9583 115.521 75.3247Q117.018 74.6911 118.554 74.1562Q120.09 73.6213 121.658 73.1873Q123.225 72.7534 124.818 72.4222Q126.41 72.091 128.02 71.864Q129.631 71.637 131.253 71.5152Q132.875 71.3933 134.501 71.3772Q136.127 71.361 137.751 71.4505Q139.375 71.5401 140.99 71.735Q142.605 71.9299 144.203 72.2293Q145.802 72.5287 147.378 72.9314Q148.954 73.3341 150.5 73.8383Q152.046 74.3426 153.556 74.9463Q155.067 75.5499 156.534 76.2505Q158.002 76.951 159.421 77.7455L400.064 212.456Q401.51 213.265 402.9 214.169Q404.289 215.073 405.616 216.067Q406.943 217.06 408.2 218.14Q409.458 219.219 410.642 220.379Q411.826 221.54 412.93 222.776Q414.034 224.012 415.054 225.319Q416.074 226.625 417.005 227.997Q417.936 229.368 418.775 230.798Q419.613 232.228 420.355 233.71Q421.096 235.192 421.738 236.721Q422.38 238.249 422.919 239.816Q423.459 241.384 423.893 242.983Q424.327 244.583 424.655 246.208Q424.982 247.833 425.201 249.476Q425.42 251.119 425.53 252.773Q425.64 254.426 425.64 256.084Q425.64 257.742 425.53 259.395Q425.42 261.049 425.201 262.692Q424.982 264.335 424.655 265.96Q424.327 267.585 423.893 269.185Q423.459 270.784 422.919 272.352Q422.38 273.919 421.738 275.447Q421.096 276.976 420.355 278.458Q419.613 279.94 418.775 281.37Q417.936 282.8 417.005 284.171Q416.074 285.543 415.054 286.849Q414.034 288.156 412.93 289.392Q411.826 290.628 410.642 291.789Q409.458 292.949 408.201 294.028Q406.943 295.108 405.616 296.102Q404.289 297.095 402.9 297.999Q401.51 298.903 400.064 299.712Z" id="path_2" />
    <rect width="512" height="512" id="artboard_1" />
    <clipPath id="clip_1">
      <use xlink:href="#artboard_1" clip-rule="evenodd" />
    </clipPath>
    <clipPath id="clip_2">
      <use xlink:href="#path_1" />
    </clipPath>
    <clipPath id="clip_3">
      <use xlink:href="#path_2" />
    </clipPath>
  </defs>
  <g id="Zeichenfläche" clip-path="url(#clip_1)">
    <g id="Rechteck" artboard="87a6d460-0770-4e22-8641-f7796e8f2b04">
      <use stroke="none" fill="url(#gradient_1)" xlink:href="#path_1" fill-rule="evenodd" />
      <g clip-path="url(#clip_2)">
        <use xlink:href="#path_1" fill="none" stroke="#FFFFFF" stroke-opacity="0.101960786" stroke-width="2" />
      </g>
    </g>
    <g id="Dreieck" artboard="a36d0f62-1172-40ea-bd70-99f39ba1ba51">
      <use stroke="none" fill="url(#gradient_2)" xlink:href="#path_2" fill-rule="evenodd" />
      <g clip-path="url(#clip_3)">
        <use xlink:href="#path_2" fill="none" stroke="#FFFFFF" stroke-opacity="0.101960786" stroke-width="2" />
      </g>
    </g>
  </g>
</svg>